<svg preserveAspectRatio="none" overflow="visible" style="display: block;" width="44" height="44" viewBox="0 0 44 44" fill="none" xmlns="http://www.w3.org/2000/svg">
<g id="Acrobat / logo" clip-path="url(#clip0_0_13)">
<path id="Vector" d="M43.3221 28.05C42.0205 26.6842 39.3511 25.905 35.5781 25.905C33.5615 25.905 31.2203 26.0993 28.683 26.554C27.1281 25.0594 25.7125 23.4265 24.4535 21.6755C23.4781 20.3738 22.6311 18.9438 21.8501 17.5762C23.348 13.0222 24.063 9.31334 24.063 6.64584C24.063 3.65384 22.9575 0.529836 19.7693 0.529836C18.794 0.529836 17.8168 1.1165 17.2961 1.96167C15.8661 4.499 16.517 10.0283 18.9883 15.4935C18.0586 18.2885 17.0171 21.045 15.8661 23.7563C14.8248 26.2295 13.6533 28.7668 12.3516 31.108C5.19612 33.9717 0.576119 37.29 0.0554526 39.8897C-0.138881 40.8668 0.185619 41.778 0.902453 42.493C1.16279 42.6892 2.07395 43.4702 3.63412 43.4702C8.38245 43.4702 13.393 35.7922 15.9303 31.174C17.8828 30.5232 19.8353 29.8723 21.786 29.3517C23.844 28.7929 25.9287 28.337 28.0321 27.9858C33.0408 32.4738 37.4646 33.1907 39.6775 33.1907C42.4091 33.1907 43.3863 32.0833 43.7108 31.174C44.2975 30.0007 43.907 28.7008 43.3221 28.05ZM40.7188 29.9383C40.5226 30.9137 39.5455 31.5645 38.1815 31.5645C37.791 31.5645 37.4665 31.4985 37.0741 31.4343C34.6028 30.8477 32.2598 29.612 29.9186 27.6595C31.724 27.3567 33.5514 27.2046 35.382 27.2048C36.7496 27.2048 37.9211 27.269 38.7003 27.4652C39.6115 27.6595 41.0433 28.2462 40.717 29.9365L40.7188 29.9383ZM26.9248 26.8803C25.1094 27.2205 23.3083 27.6327 21.5256 28.116C19.9711 28.5206 18.4302 28.9761 16.9056 29.4818C17.6982 27.947 18.4362 26.3846 19.1185 24.7977C19.8995 22.9753 20.5485 21.0888 21.2011 19.3325C21.8501 20.438 22.567 21.5453 23.282 22.5207C24.4509 24.0112 25.6658 25.4651 26.9248 26.8803ZM18.4035 2.67667C18.5188 2.44645 18.6949 2.25216 18.9127 2.11483C19.1305 1.97749 19.3817 1.90234 19.6391 1.8975C21.005 1.8975 21.2653 3.45767 21.2653 4.69517C21.2653 6.776 20.6145 9.96417 19.509 13.607C17.6206 8.53234 17.4923 4.30467 18.4035 2.67667ZM11.2461 32.9945C7.92779 38.4597 4.73962 41.8422 2.78895 41.8422C2.43694 41.8446 2.09401 41.7305 1.81362 41.5177C1.42312 41.1272 1.22695 40.6725 1.35712 40.1518C1.74762 38.1993 5.52062 35.4677 11.2461 32.9945Z" fill="#EEEEE2"/>
</g>
<defs>
<clipPath id="clip0_0_13">
<rect width="44" height="44" fill="white"/>
</clipPath>
</defs>
</svg>
